<svg width="22" height="22" viewBox="0 0 22 22" fill="none" xmlns="http://www.w3.org/2000/svg">
<path d="M15.1906 11.2657C15.1906 12.1762 15.1414 13.054 15.0553 13.8907H7.45096C7.36483 13.054 7.2787 12.1762 7.2787 11.2657C7.2787 10.3551 7.36483 9.4774 7.45096 8.64069H15.0553C15.1414 9.4774 15.1906 10.3551 15.1906 11.2657ZM21.4209 8.64069C21.6383 9.48151 21.7531 10.3592 21.7531 11.2657C21.7531 12.1721 21.6383 13.0499 21.4209 13.8907H16.3719C16.458 13.0458 16.5031 12.1311 16.5031 11.2657C16.5031 10.3633 16.458 9.48561 16.3719 8.64069H21.4209ZM20.9902 7.32819H16.2037C15.7935 4.70893 14.9814 2.51377 13.9355 1.11194C17.1512 1.95883 19.7598 4.29057 20.9902 7.32819ZM14.8748 7.32819H7.63143C7.88163 5.83522 8.26718 4.51369 8.73885 3.44606C9.16952 2.47768 9.6494 1.77508 10.1129 1.33211C10.5723 0.896034 10.9537 0.765686 11.2531 0.765686C11.5525 0.765686 11.934 0.896034 12.3933 1.33211C12.8568 1.77508 13.3367 2.47768 13.7674 3.44606C14.239 4.51369 14.6246 5.83522 14.8748 7.32819ZM1.51641 7.32819C2.74606 4.29057 5.35507 1.95883 8.57069 1.11194C7.52479 2.51377 6.71268 4.70893 6.30253 7.32819H1.51641ZM6.13436 8.64069C6.04823 9.48561 5.9662 10.3633 5.9662 11.2657C5.9662 12.1311 6.04823 13.0458 6.13436 13.8907H1.0839C0.867957 13.0499 0.753113 12.1721 0.753113 11.2657C0.753113 10.3592 0.867957 9.48151 1.0839 8.64069H6.13436ZM8.73885 19.0833C8.26718 18.0169 7.88163 16.6962 7.63143 15.2032H14.8748C14.6246 16.6962 14.239 18.0169 13.7674 19.0833C13.3367 20.0553 12.8568 20.7567 12.3933 21.1997C11.934 21.6344 11.5525 21.7657 11.2162 21.7657C10.9537 21.7657 10.5723 21.6344 10.1129 21.1997C9.6494 20.7567 9.16952 20.0553 8.73885 19.0833ZM8.57069 21.4212C5.35507 20.5721 2.74606 18.2424 1.51641 15.2032H6.30253C6.71268 17.8241 7.52479 20.0184 8.57069 21.4212ZM13.9355 21.4212C14.9814 20.0184 15.7935 17.8241 16.2037 15.2032H20.9902C19.7598 18.2424 17.1512 20.5721 13.9355 21.4212Z" fill="#5D5FEF"/>
</svg>
