<svg width="18" height="20" fill="none" xmlns="http://www.w3.org/2000/svg"><path d="M6.094 19.006a2.458 2.458 0 0 1-1.653-.766 9.902 9.902 0 0 1-1.377-1.648 11.408 11.408 0 0 1-1.459-2.893 10.653 10.653 0 0 1-.611-3.445 6.317 6.317 0 0 1 .826-3.292 4.88 4.88 0 0 1 1.73-1.751 4.663 4.663 0 0 1 2.344-.662 5.51 5.51 0 0 1 1.81.421c.459.202.941.344 1.436.422a8.566 8.566 0 0 0 1.593-.5 5.789 5.789 0 0 1 1.903-.393c.087 0 .173 0 .256.01 1.43.041 2.76.743 3.6 1.9a4.02 4.02 0 0 0-2.123 3.637 4.022 4.022 0 0 0 1.317 3.023c.383.365.829.657 1.316.863-.1.3-.215.59-.337.882a10.38 10.38 0 0 1-1.021 1.837 9.45 9.45 0 0 1-1.316 1.592 2.57 2.57 0 0 1-1.692.743 4.248 4.248 0 0 1-1.562-.373 4.5 4.5 0 0 0-1.68-.373 4.645 4.645 0 0 0-1.73.371 4.656 4.656 0 0 1-1.495.393l-.075.002Zm3.15-14.507c-.075 0-.15 0-.225-.009a2.891 2.891 0 0 1-.025-.359 4.17 4.17 0 0 1 1.1-2.688A4.277 4.277 0 0 1 11.443.434c.478-.246 1-.394 1.536-.435.015.131.015.259.015.381a4.073 4.073 0 0 1-1.04 2.66 3.643 3.643 0 0 1-2.71 1.459Z" fill="#fff"/></svg>