<svg width="22" height="22" fill="none" xmlns="http://www.w3.org/2000/svg"><path d="M15.19 11.266c0 .91-.049 1.788-.135 2.625H7.451c-.086-.837-.172-1.715-.172-2.625 0-.91.086-1.789.172-2.625h7.604c.086.836.136 1.714.136 2.625Zm6.23-2.625c.218.84.333 1.718.333 2.625 0 .906-.115 1.784-.332 2.625h-5.05a26.478 26.478 0 0 0 0-5.25h5.05Zm-.43-1.313h-4.786c-.41-2.62-1.223-4.814-2.269-6.216a10.523 10.523 0 0 1 7.055 6.216Zm-6.115 0H7.63c.25-1.493.636-2.814 1.108-3.882.43-.968.91-1.67 1.374-2.114.46-.436.84-.566 1.14-.566.3 0 .681.13 1.14.566.464.443.944 1.146 1.374 2.114.472 1.068.858 2.39 1.108 3.882Zm-13.359 0a10.521 10.521 0 0 1 7.055-6.216C7.525 2.514 6.713 4.709 6.303 7.328H1.516Zm4.618 1.313c-.086.845-.168 1.722-.168 2.625 0 .865.082 1.78.168 2.625h-5.05a10.53 10.53 0 0 1-.33-2.625c0-.907.114-1.784.33-2.625h5.05ZM8.74 19.083c-.472-1.066-.857-2.387-1.108-3.88h7.244c-.25 1.493-.636 2.814-1.108 3.88-.43.972-.91 1.674-1.374 2.117-.459.434-.84.566-1.177.566-.262 0-.644-.132-1.103-.566-.464-.443-.943-1.145-1.374-2.117Zm-.168 2.338a10.525 10.525 0 0 1-7.055-6.218h4.787c.41 2.621 1.222 4.815 2.268 6.218Zm5.364 0c1.046-1.403 1.858-3.597 2.269-6.218h4.786a10.527 10.527 0 0 1-7.054 6.218Z" fill="#5D5FEF"/></svg>