<svg width="75" height="72" viewBox="0 0 75 72" fill="none" xmlns="http://www.w3.org/2000/svg">
<g filter="url('#filter0_d_5_154')">
<path fill-rule="evenodd" clip-rule="evenodd" d="M64.6924 21.3998C60.1741 11.078 49.6999 3.84699 37.5 3.84699C25.3001 3.84699 14.8259 11.078 10.3076 21.3998C13.0811 21.2085 16.6507 22.0503 20.7752 23.0227C25.6969 24.1833 31.4085 25.5301 37.5 25.5301C43.5915 25.5301 49.3031 24.1833 54.2248 23.0227C58.3493 22.0503 61.9189 21.2085 64.6924 21.3998ZM70.0709 25.087C66.5317 10.6944 53.292 0 37.5 0C21.7081 0 8.46831 10.6944 4.92899 25.087C4.3217 26.564 4 28.5611 4 31.2131C4 31.4761 4.00316 31.7384 4.00946 32C4.00316 32.2616 4 32.5239 4 32.7869C4 35.4389 4.3217 37.436 4.92899 38.913C8.46831 53.3057 21.7081 64 37.5 64C53.292 64 66.5317 53.3057 70.0709 38.913C70.6782 37.436 71 35.4389 71 32.7869C71 32.5239 70.9968 32.2616 70.9905 32C70.9968 31.7384 71 31.4761 71 31.2131C71 28.5611 70.6782 26.564 70.0709 25.087ZM67.0586 32C67.0054 33.9534 66.7543 35.8585 66.3243 37.6969C66.1333 38.0886 65.9532 38.2755 65.8521 38.3579C65.5428 38.61 64.6259 39.0111 61.7408 38.61C59.8576 38.3482 57.8131 37.8656 55.3836 37.2919C54.1632 37.0039 52.845 36.6926 51.4019 36.3751C47.2933 35.471 42.5563 34.623 37.5 34.623C32.4437 34.623 27.7067 35.471 23.5981 36.3751C22.1549 36.6926 20.837 37.0037 19.6164 37.2919C17.1869 37.8656 15.1424 38.3482 13.2592 38.61C10.3741 39.0111 9.45723 38.61 9.14787 38.3579C9.04682 38.2755 8.86679 38.0886 8.67565 37.6969C8.24571 35.8585 7.99466 33.9534 7.94139 32C7.99466 30.0466 8.24571 28.1415 8.67565 26.3031C8.86679 25.9114 9.04682 25.7245 9.14787 25.6421C9.45723 25.39 10.3741 24.9889 13.2592 25.39C15.1424 25.6518 17.1869 26.1344 19.6164 26.7081C20.837 26.9963 22.1549 27.3074 23.5981 27.6249C27.7067 28.529 32.4437 29.377 37.5 29.377C42.5563 29.377 47.2933 28.529 51.4019 27.6249C52.845 27.3074 54.1625 26.9963 55.3829 26.7083C57.8124 26.1346 59.8576 25.6518 61.7408 25.39C64.6259 24.9889 65.5428 25.39 65.8521 25.6421C65.9532 25.7245 66.1333 25.9114 66.3243 26.3031C66.7543 28.1415 67.0054 30.0466 67.0586 32ZM10.3076 42.6002C13.0811 42.7915 16.6507 41.9499 20.7752 40.9773C25.6969 39.8167 31.4085 38.4699 37.5 38.4699C43.5915 38.4699 49.3031 39.8167 54.2248 40.9773C58.3493 41.9499 61.9189 42.7915 64.6924 42.6002C60.1741 52.9221 49.6999 60.153 37.5 60.153C25.3001 60.153 14.8259 52.9221 10.3076 42.6002Z" fill="#1E6141"></path>
</g>
<defs>
<filter id="filter0_d_5_154" x="0" y="0" width="75" height="72" filterUnits="userSpaceOnUse" color-interpolation-filters="sRGB">
<feFlood flood-opacity="0" result="BackgroundImageFix"></feFlood>
<feColorMatrix in="SourceAlpha" type="matrix" values="0 0 0 0 0 0 0 0 0 0 0 0 0 0 0 0 0 0 127 0" result="hardAlpha"></feColorMatrix>
<feOffset dy="4"></feOffset>
<feGaussianBlur stdDeviation="2"></feGaussianBlur>
<feComposite in2="hardAlpha" operator="out"></feComposite>
<feColorMatrix type="matrix" values="0 0 0 0 0 0 0 0 0 0 0 0 0 0 0 0 0 0 0.25 0"></feColorMatrix>
<feBlend mode="normal" in2="BackgroundImageFix" result="effect1_dropShadow_5_154"></feBlend>
<feBlend mode="normal" in="SourceGraphic" in2="effect1_dropShadow_5_154" result="shape"></feBlend>
</filter>
</defs>
</svg>
