<svg width="75" height="72" fill="none" xmlns="http://www.w3.org/2000/svg"><g filter="url('#filter0_d_5_154')"><path fill-rule="evenodd" clip-rule="evenodd" d="M64.692 21.4C60.174 11.078 49.7 3.847 37.5 3.847S14.826 11.078 10.308 21.4c2.773-.191 6.343.65 10.467 1.623 4.922 1.16 10.634 2.507 16.725 2.507 6.092 0 11.803-1.347 16.725-2.507 4.124-.973 7.694-1.814 10.467-1.623Zm5.379 3.687C66.53 10.694 53.292 0 37.5 0 21.708 0 8.468 10.694 4.929 25.087 4.322 26.564 4 28.561 4 31.213c0 .263.003.525.01.787-.007.262-.01.524-.01.787 0 2.652.322 4.649.929 6.126C8.469 53.306 21.709 64 37.5 64c15.792 0 29.032-10.694 32.57-25.087.608-1.477.93-3.474.93-6.126 0-.263-.003-.525-.01-.787.007-.262.01-.524.01-.787 0-2.652-.322-4.649-.93-6.126ZM67.059 32a28.386 28.386 0 0 1-.735 5.697c-.19.392-.37.578-.472.66-.31.253-1.226.654-4.111.253-1.883-.262-3.928-.744-6.357-1.318-1.22-.288-2.539-.6-3.982-.917-4.109-.904-8.846-1.752-13.902-1.752-5.056 0-9.793.848-13.902 1.752a259.67 259.67 0 0 0-3.982.917c-2.43.574-4.474 1.056-6.357 1.318-2.885.401-3.802 0-4.111-.252-.101-.082-.281-.27-.472-.661A28.395 28.395 0 0 1 7.94 32c.054-1.953.305-3.858.735-5.697.19-.392.37-.579.472-.66.31-.253 1.226-.654 4.111-.253 1.883.262 3.928.744 6.357 1.318 1.221.288 2.539.6 3.982.917 4.109.904 8.846 1.752 13.902 1.752 5.056 0 9.793-.848 13.902-1.752 1.443-.318 2.76-.629 3.98-.917 2.43-.573 4.476-1.056 6.359-1.318 2.885-.401 3.802 0 4.111.252.101.082.281.27.472.661.43 1.838.681 3.744.735 5.697ZM10.308 42.6c2.773.191 6.343-.65 10.467-1.623 4.922-1.16 10.634-2.507 16.725-2.507 6.092 0 11.803 1.347 16.725 2.507 4.124.973 7.694 1.815 10.467 1.623C60.174 52.922 49.7 60.153 37.5 60.153S14.826 52.923 10.308 42.6Z" fill="#1E6141"/></g><defs><filter id="filter0_d_5_154" x="0" y="0" width="75" height="72" filterUnits="userSpaceOnUse" color-interpolation-filters="sRGB"><feFlood flood-opacity="0" result="BackgroundImageFix"/><feColorMatrix in="SourceAlpha" values="0 0 0 0 0 0 0 0 0 0 0 0 0 0 0 0 0 0 127 0" result="hardAlpha"/><feOffset dy="4"/><feGaussianBlur stdDeviation="2"/><feComposite in2="hardAlpha" operator="out"/><feColorMatrix values="0 0 0 0 0 0 0 0 0 0 0 0 0 0 0 0 0 0 0.25 0"/><feBlend in2="BackgroundImageFix" result="effect1_dropShadow_5_154"/><feBlend in="SourceGraphic" in2="effect1_dropShadow_5_154" result="shape"/></filter></defs></svg>