<svg width="22" height="17" viewBox="0 0 22 17" fill="none" xmlns="http://www.w3.org/2000/svg">
<path d="M0.753113 3.43235C0.753113 1.95944 1.92821 0.765686 3.37811 0.765686H19.1281C20.576 0.765686 21.7531 1.95944 21.7531 3.43235V14.099C21.7531 15.5699 20.576 16.7657 19.1281 16.7657H3.37811C1.92821 16.7657 0.753113 15.5699 0.753113 14.099V3.43235ZM2.72186 3.43235V4.35319L9.79706 10.2532C10.642 10.9615 11.8642 10.9615 12.7092 10.2532L19.7844 4.35319V3.39485C19.7844 3.06569 19.489 2.72819 19.1281 2.72819H3.37811C3.01553 2.72819 2.72186 3.06569 2.72186 3.39485V3.43235ZM2.72186 6.94069V14.099C2.72186 14.4657 3.01553 14.7657 3.37811 14.7657H19.1281C19.489 14.7657 19.7844 14.4657 19.7844 14.099V6.94069L13.9601 11.799C12.3851 13.1115 10.1211 13.1115 8.50917 11.799L2.72186 6.94069Z" fill="#5D5FEF"></path>
</svg>
