<svg width="22" height="17" fill="none" xmlns="http://www.w3.org/2000/svg"><path d="M.753 3.432C.753 1.96 1.928.766 3.378.766h15.75c1.448 0 2.625 1.193 2.625 2.666V14.1c0 1.47-1.177 2.667-2.625 2.667H3.378c-1.45 0-2.625-1.196-2.625-2.667V3.432Zm1.969 0v.921l7.075 5.9a2.261 2.261 0 0 0 2.912 0l7.075-5.9v-.958c0-.33-.295-.667-.656-.667H3.378c-.362 0-.656.338-.656.667v.037Zm0 3.509v7.158c0 .367.294.667.656.667h15.75c.361 0 .656-.3.656-.667V6.941l-5.824 4.858c-1.575 1.313-3.839 1.313-5.45 0L2.721 6.941Z" fill="#5D5FEF"/></svg>