<svg width="177" height="56" fill="none" xmlns="http://www.w3.org/2000/svg"><path d="M18.745 55.922c-3.77 0-7.06-.854-9.87-2.562-2.81-1.707-4.992-4.097-6.545-7.168C.777 43.122 0 39.533 0 35.427c0-4.123.777-7.729 2.33-10.817s3.735-5.486 6.545-7.194c2.81-1.708 6.1-2.562 9.87-2.562 3.77 0 7.06.854 9.87 2.562 2.81 1.708 4.99 4.106 6.544 7.194 1.553 3.088 2.33 6.694 2.33 10.817 0 4.106-.776 7.694-2.33 10.765-1.553 3.071-3.735 5.46-6.545 7.168-2.81 1.708-6.1 2.562-9.87 2.562Zm.026-6.495c2.443 0 4.468-.638 6.073-1.915 1.606-1.277 2.793-2.976 3.56-5.098.786-2.122 1.179-4.46 1.179-7.013 0-2.536-.393-4.865-1.178-6.987-.768-2.14-1.955-3.856-3.56-5.15-1.606-1.294-3.63-1.94-6.074-1.94-2.461 0-4.503.646-6.126 1.94-1.606 1.294-2.801 3.01-3.587 5.15-.768 2.122-1.152 4.451-1.152 6.987 0 2.553.384 4.891 1.152 7.013.786 2.122 1.981 3.821 3.587 5.098 1.623 1.277 3.665 1.915 6.126 1.915Z" fill="#1E6141"/><path d="M57.929 56c-2.548 0-4.852-.466-6.912-1.397-2.059-.95-3.69-2.32-4.895-4.115-1.187-1.794-1.78-3.994-1.78-6.599 0-2.243.436-4.089 1.309-5.538a9.608 9.608 0 0 1 3.534-3.442c1.483-.845 3.141-1.483 4.974-1.914 1.833-.432 3.7-.76 5.602-.984l5.865-.673c1.5-.19 2.591-.491 3.272-.905.68-.415 1.021-1.087 1.021-2.019v-.181c0-2.26-.646-4.011-1.937-5.253-1.274-1.242-3.177-1.864-5.707-1.864-2.636 0-2.645 0-6.231 1.734-3.587 1.734-19.618 19.288-20.194 20.686l-3.21-5.754c.872-2.415 15.079-17.149 16.754-18.632a15.55 15.55 0 0 1 5.838-3.26c2.2-.691 4.512-1.036 6.938-1.036 1.606 0 3.307.19 5.105.57a15.043 15.043 0 0 1 5.079 2.018c1.588.983 2.888 2.39 3.9 4.218 1.013 1.811 1.519 4.166 1.519 7.065V55.12h-7.644v-5.434h-.315c-.506 1-1.265 1.984-2.277 2.95-1.013.966-2.313 1.768-3.901 2.406-1.588.639-3.49.958-5.707.958Zm1.701-6.21c2.165 0 4.015-.423 5.55-1.269 1.554-.845 2.732-1.95 3.535-3.312a8.517 8.517 0 0 0 1.23-4.425V35.66c-.279.276-.82.535-1.623.776-.785.224-1.684.423-2.696.595a320.42 320.42 0 0 1-2.959.44c-.96.121-1.762.225-2.408.31-1.519.19-2.906.51-4.163.958-1.239.449-2.234 1.096-2.984 1.941-.733.828-1.1 1.932-1.1 3.313 0 1.915.716 3.364 2.147 4.347 1.431.966 3.255 1.45 5.471 1.45Z" fill="#1E6141"/><path d="m135.551 42.097-7.094 1.242s-17.988-18.772-18.634-19.583c-.628-.81-1.483-1.475-2.565-1.993-1.082-.517-2.435-.776-4.058-.776-2.217 0-4.067.492-5.55 1.475-1.484.966-2.226 2.217-2.226 3.752 0 1.329.498 2.398 1.493 3.21.995.81 2.6 1.474 4.817 1.992l6.388 1.45c3.7.844 6.457 2.147 8.272 3.907 1.815 1.76 2.723 4.045 2.723 6.857 0 2.381-.698 4.503-2.094 6.366-1.379 1.846-3.308 3.295-5.786 4.348-2.461 1.052-5.315 1.578-8.561 1.578-4.503 0-8.177-.948-11.021-2.846-2.845-1.915-20.823-20.677-21.468-24.197l7.566-1.138c.47 1.949 17.099 18.995 19.138 20.47 2.038 1.475 3.377 1.475 5.733 1.475 2.565 0 4.616-.526 6.152-1.579 1.536-1.07 2.304-2.372 2.304-3.907 0-1.242-.471-2.286-1.414-3.132-.925-.845-2.347-1.483-4.267-1.915l-6.807-1.475c-3.752-.845-6.527-2.19-8.325-4.037-1.78-1.846-2.67-4.183-2.67-7.012 0-2.347.663-4.4 1.99-6.16 1.326-1.76 3.159-3.13 5.497-4.114 2.339-1 5.018-1.501 8.037-1.501 4.346 0 7.767.932 10.263 2.795 2.495 1.846 21.364 21.343 22.167 24.448Z" fill="#1E6141"/><path d="M127.724 55.12V15.372h7.827V55.12h-7.827Zm3.953-45.882c-1.362 0-2.531-.448-3.508-1.345-.96-.915-1.44-2.001-1.44-3.26 0-1.277.48-2.364 1.44-3.261C129.146.457 130.315 0 131.677 0c1.361 0 2.522.457 3.482 1.372.977.897 1.466 1.984 1.466 3.26 0 1.26-.489 2.346-1.466 3.26-.96.898-2.121 1.346-3.482 1.346Z" fill="#1E6141"/><path d="m176.215 25.076-7.095 1.242a8.281 8.281 0 0 0-1.414-2.562c-.628-.81-1.483-1.475-2.565-1.993-1.082-.517-2.435-.776-4.058-.776-2.217 0-4.067.492-5.55 1.475-1.484.966-2.226 2.217-2.226 3.752 0 1.329.498 2.398 1.493 3.21.995.81 2.6 1.474 4.817 1.992l6.388 1.45c3.7.844 6.457 2.147 8.272 3.907 1.815 1.76 2.723 4.045 2.723 6.857 0 2.381-.698 4.503-2.094 6.366-1.379 1.846-3.308 3.295-5.786 4.348-2.461 1.052-5.314 1.578-8.561 1.578-4.503 0-8.177-.948-11.021-2.846-2.845-1.915-20.907-20.76-21.553-24.28l7.566-1.139c.471 1.95 17.061 19.079 19.223 20.554 2.161 1.475 3.377 1.475 5.733 1.475 2.565 0 4.616-.526 6.152-1.579 1.536-1.07 2.304-2.372 2.304-3.907 0-1.242-.471-2.286-1.414-3.132-.925-.845-2.347-1.483-4.267-1.915l-6.807-1.475c-3.752-.845-6.527-2.19-8.325-4.037-1.78-1.846-2.67-4.183-2.67-7.012 0-2.347.663-4.4 1.989-6.16 1.327-1.76 3.159-3.13 5.498-4.114 2.339-1 5.018-1.501 8.037-1.501 4.346 0 7.767.932 10.263 2.795 2.495 1.846 4.145 4.321 4.948 7.427Z" fill="#1E6141"/></svg>