<svg width="20" height="21" fill="none" xmlns="http://www.w3.org/2000/svg"><path d="M12.079.869c-1.307.245-2.315.817-3.403 1.93-.658.673-.998 1.112-1.217 1.592a7.642 7.642 0 0 0-.719 3.257v.98L3.747 11.69.753 14.763v2.46c0 2.46 0 2.471.24 2.757l.24.286h4.929l.24-.286c.209-.255.239-.378.239-1.195v-.898l.948-.04c1.277-.042 1.377-.144 1.446-1.44l.05-.94.918-.05.928-.052.6-.612.608-.613 1.018-.01c1.945-.02 3.452-.643 4.7-1.93.818-.836 1.257-1.561 1.636-2.623.23-.653.26-.909.26-2.072.01-1.501-.12-2.093-.709-3.247-.409-.786-1.417-1.888-2.225-2.43a6.558 6.558 0 0 0-4.74-.96Zm2.485 1.848a4.636 4.636 0 0 1 3.023 2.562c.679 1.44.679 2.91 0 4.36-.948 2.041-3.023 3.042-5.478 2.623l-.47-.082-.668.694-.678.705-1.497.02-1.507.03-.03 1.206-.03 1.194H4.844v2.45H2.45V15.457l3.104-3.154 3.103-3.155-.11-.888c-.399-3.154 1.657-5.656 4.67-5.696a5.68 5.68 0 0 1 1.348.153Z" fill="#5D5FEF"/></svg>