<svg width="20" height="21" viewBox="0 0 20 21" fill="none" xmlns="http://www.w3.org/2000/svg">
<path d="M12.079 0.868914C10.7717 1.11393 9.7639 1.68562 8.67622 2.79838C8.01762 3.47216 7.67834 3.91114 7.45881 4.39096C6.98981 5.38122 6.74034 6.50419 6.74034 7.64758V8.62762L3.74673 11.6903L0.753113 14.7631V17.2235C0.753113 19.6838 0.753113 19.694 0.992602 19.9798L1.23209 20.2657H3.69683H6.16158L6.40107 19.9798C6.61062 19.7246 6.64056 19.6021 6.64056 18.7854V17.887L7.58853 17.8462C8.86581 17.8054 8.9656 17.7033 9.03545 16.4067L9.08534 15.4675L10.0034 15.4165L10.9314 15.3654L11.5301 14.7529L12.1388 14.1404L13.1567 14.1302C15.1025 14.1098 16.6093 13.487 17.8566 12.2007C18.6749 11.3636 19.114 10.6388 19.4931 9.57704C19.7227 8.92368 19.7526 8.66846 19.7526 7.50465C19.7626 6.00395 19.6328 5.41184 19.0441 4.25825C18.635 3.47216 17.6271 2.36961 16.8188 1.82854C15.4418 0.919958 13.7155 0.572859 12.079 0.868914ZM14.5637 2.71671C15.8908 3.06381 16.9985 4.00302 17.5872 5.27913C18.2658 6.71857 18.2658 8.18864 17.5872 9.6383C16.6392 11.6801 14.5637 12.6805 12.1089 12.262L11.6399 12.1803L10.9713 12.8745L10.2928 13.5789L8.79596 13.5993L7.28917 13.6299L7.25924 14.8346L7.2293 16.029H6.04183H4.84439V17.2541V18.4791H3.64694H2.44949V16.9682V15.4573L5.55288 12.3028L8.65626 9.14827L8.54649 8.26011C8.14734 5.10558 10.203 2.60441 13.2165 2.56358C13.6157 2.55337 14.2244 2.62483 14.5637 2.71671Z" fill="#5D5FEF"></path>
</svg>
