<svg width="236" height="232" fill="none" xmlns="http://www.w3.org/2000/svg"><path d="M187.45 68.323c21.989 12.696 54.075-11.63 65.794-31.927 9.766-16.915 13.027-42.095-3.887-51.86-21.989-12.696-54.076 11.63-65.795 31.927-9.765 16.914-13.027 42.095 3.888 51.86Zm-64.276-37.11c16.915 9.766 37.091-5.648 46.857-22.563 12.695-21.989 17.718-61.939-4.271-74.634-16.914-9.766-37.09 5.649-46.856 22.563-14.387 21.013-19.41 60.963 4.27 74.635Zm134.934 55.352c-21.989-12.695-54.79 8.962-67.486 30.951-8.789 15.223-10.812 34.352 4.411 43.141 21.989 12.696 54.79-8.962 67.486-30.95 8.789-15.224 9.121-35.33-4.411-43.142ZM80.678 54.039c12.695-21.989 13.359-62.2-6.939-73.92C58.516-28.67 42.961-17.353 34.172-2.13c-12.695 21.99-13.359 62.201 6.939 73.92 15.223 8.79 30.778-2.528 39.567-17.75Zm56.079 27.867c-33.829-19.531-110.748 8.228-132.233 45.44-9.765 16.915-.855 28.825 12.677 36.638 20.297 11.719 43.333 6.976 61.94 17.718 16.914 9.766 24.324 32.087 42.93 42.829 13.532 7.812 30.708 13.218 41.451-5.388 21.484-37.212 7.065-117.706-26.765-137.237Z" fill="#323643" fill-opacity=".05"/></svg>