<svg width="18" height="20" fill="none" xmlns="http://www.w3.org/2000/svg"><path d="M11.075 12.047H7.432c-3.689 0-6.679 2.924-6.679 6.531 0 .656.544 1.188 1.214 1.188H16.54c.67 0 1.214-.532 1.214-1.188 0-3.607-2.99-6.531-6.678-6.531Zm-8.463 5.937c.3-2.341 2.346-4.156 4.82-4.156h3.643c2.472 0 4.519 1.817 4.819 4.156H2.612Zm6.641-7.718c2.682 0 4.857-2.127 4.857-4.75 0-2.624-2.175-4.75-4.857-4.75-2.682 0-4.857 2.126-4.857 4.75 0 2.623 2.174 4.75 4.857 4.75Zm0-7.72c1.674 0 3.036 1.333 3.036 2.97 0 1.637-1.362 2.968-3.036 2.968S6.217 7.152 6.217 5.516c0-1.637 1.363-2.97 3.036-2.97Z" fill="#5D5FEF"/></svg>