<svg width="18" height="20" viewBox="0 0 18 20" fill="none" xmlns="http://www.w3.org/2000/svg">
<path d="M11.0745 12.0469H7.43168C3.74329 12.0469 0.753113 14.9711 0.753113 18.5782C0.753113 19.2339 1.29689 19.7657 1.9674 19.7657H16.5388C17.2093 19.7657 17.7531 19.2339 17.7531 18.5782C17.7531 14.9711 14.7629 12.0469 11.0745 12.0469ZM2.61211 17.9844C2.91189 15.6428 4.95758 13.8282 7.43168 13.8282H11.0745C13.5471 13.8282 15.594 15.6447 15.8937 17.9844H2.61211ZM9.25311 10.2657C11.9355 10.2657 14.1103 8.13893 14.1103 5.51567C14.1103 2.89241 11.9355 0.765671 9.25311 0.765671C6.57068 0.765671 4.39597 2.89241 4.39597 5.51567C4.39597 8.1393 6.5703 10.2657 9.25311 10.2657ZM9.25311 2.54692C10.9269 2.54692 12.2888 3.87878 12.2888 5.51567C12.2888 7.15257 10.9269 8.48442 9.25311 8.48442C7.5793 8.48442 6.2174 7.15219 6.2174 5.51567C6.2174 3.87878 7.57968 2.54692 9.25311 2.54692Z" fill="#5D5FEF"></path>
</svg>
